<svg xmlns="http://www.w3.org/2000/svg" viewBox="0 0 35 18"><defs><style>.cls-1{opacity:0.9;}.cls-2{fill:#0033a0;}.cls-3{fill:#fff;}</style></defs><title>Asset 1</title><g id="Layer_2" data-name="Layer 2"><g id="Layer_1-2" data-name="Layer 1"><g class="cls-1"><rect class="cls-2" x="0.5" y="0.5" width="34" height="17" rx="5"/><path class="cls-2" d="M29.5,1A4.51,4.51,0,0,1,34,5.5v7A4.51,4.51,0,0,1,29.5,17H5.5A4.51,4.51,0,0,1,1,12.5v-7A4.51,4.51,0,0,1,5.5,1h24m0-1H5.5A5.52,5.52,0,0,0,0,5.5v7A5.52,5.52,0,0,0,5.5,18h24A5.52,5.52,0,0,0,35,12.5v-7A5.52,5.52,0,0,0,29.5,0Z"/></g><polygon class="cls-3" points="23.5 9 14.5 3.8 14.5 14.2 23.5 9"/></g></g></svg>