<?xml version="1.0" encoding="utf-8"?>
<!-- Generator: Adobe Illustrator 24.0.3, SVG Export Plug-In . SVG Version: 6.00 Build 0)  -->
<svg version="1.1" id="Layer_1" xmlns="http://www.w3.org/2000/svg" xmlns:xlink="http://www.w3.org/1999/xlink" x="0px" y="0px"
	 viewBox="0 0 98 98" style="enable-background:new 0 0 98 98;" xml:space="preserve">
<style type="text/css">
	.st0{fill:#FFFFFF;}
</style>
<title>User_Icon_White</title>
<path class="st0" d="M49,4c24.9,0,45,20.1,45,45S73.9,94,49,94S4,73.9,4,49C4,24.2,24.2,4,49,4 M49,0C21.9,0,0,21.9,0,49
	s21.9,49,49,49s49-21.9,49-49S76.1,0,49,0z"/>
<circle class="st0" cx="49" cy="36.5" r="16.6"/>
<path class="st0" d="M49,20.4c8.9,0,16.1,7.2,16.1,16.1S57.9,52.6,49,52.6s-16.1-7.2-16.1-16.1c0,0,0,0,0,0
	C32.9,27.6,40.1,20.4,49,20.4 M49,19.4c-9.4,0-17.1,7.6-17.1,17.1c0,9.4,7.6,17.1,17.1,17.1s17.1-7.6,17.1-17.1c0,0,0,0,0,0
	C66.1,27,58.4,19.4,49,19.4C49,19.4,49,19.4,49,19.4z"/>
<path class="st0" d="M49,91.8c-12.9,0-25.1-5.8-33.2-15.8C23.1,63.7,35.5,56.3,49,56.3s25.9,7.4,33.2,19.7
	C74.1,86,61.9,91.8,49,91.8z"/>
<path class="st0" d="M49,56.8c13.2,0,25.3,7.2,32.6,19.2C66.6,94,40,96.5,22,81.6c-2-1.7-3.9-3.5-5.6-5.6C23.7,64,35.8,56.8,49,56.8
	 M49,55.8c-14.2,0-26.7,8.1-33.8,20.3c15,18.6,42.2,21.6,60.8,6.7c2.5-2,4.7-4.2,6.7-6.7C75.7,63.9,63.2,55.8,49,55.8z"/>
</svg>
