<?xml version="1.0" encoding="UTF-8"?>
<svg width="30px" height="30px" viewBox="0 0 30 30" version="1.1" xmlns="http://www.w3.org/2000/svg" xmlns:xlink="http://www.w3.org/1999/xlink">
    <!-- Generator: Sketch 59.1 (86144) - https://sketch.com -->
    <title>flogo-RGB-HEX-Blk-72</title>
    <desc>Created with Sketch.</desc>
    <g id="ALL-FINAL-DESIGNS" stroke="none" stroke-width="1" fill="none" fill-rule="evenodd">
        <g id="Article-Detail-Page" transform="translate(-938.000000, -6255.000000)">
            <g id="Group-19" transform="translate(0.000000, 5904.000000)">
                <g id="Group-17" transform="translate(309.000000, 104.000000)">
                    <g id="Group-7" transform="translate(629.000000, 211.000000)">
                        <g id="flogo-RGB-HEX-Blk-72" transform="translate(0.000000, 36.000000)">
                            <path d="M28.3333333,0 L1.66666667,0 C0.746192084,0 0,0.746192084 0,1.66666667 L0,28.3333333 C0,29.2538079 0.746192084,30 1.66666667,30 L16.025,30 L16.025,18.4 L12.1291667,18.4 L12.1291667,13.8583333 L16.025,13.8583333 L16.025,10.525 C16.025,6.65 18.3916667,4.5375 21.8583333,4.5375 C23.0246045,4.53409164 24.1902031,4.59390159 25.35,4.71666667 L25.35,8.75 L22.9583333,8.75 C21.0791667,8.75 20.7125,9.64583333 20.7125,10.9583333 L20.7125,13.85 L25.2083333,13.85 L24.625,18.3916667 L20.7125,18.3916667 L20.7125,30 L28.3333333,30 C29.2538079,30 30,29.2538079 30,28.3333333 L30,1.66666667 C30,0.746192084 29.2538079,0 28.3333333,0 Z" id="Path" fill="#FFFFFF"></path>
                            <path d="M20.4452854,30 L20.4452854,18.6144899 L24.2948597,18.6144899 L24.8688111,14.1568009 L20.4452854,14.1568009 L20.4452854,11.3186026 C20.4452854,10.0303714 20.8060549,9.15110251 22.6549984,9.15110251 L25,9.15110251 L25,5.17598906 C23.8588564,5.05549398 22.7120044,4.99678994 21.5644907,5 C18.1617786,5 15.8249763,7.07357408 15.8249763,10.8769234 L15.8249763,14.1486217 L12,14.1486217 L12,18.6063106 L15.8331757,18.6063106 L15.8331757,30 L20.4452854,30 Z" id="f"></path>
                        </g>
                    </g>
                </g>
            </g>
        </g>
    </g>
</svg>