<svg id="Layer_1" data-name="Layer 1" xmlns="http://www.w3.org/2000/svg" xmlns:xlink="http://www.w3.org/1999/xlink" viewBox="0 0 56.9 67.43"><defs><style>.cls-1{fill:#0079C0;}.cls-2{clip-path:url(#clip-path);}</style><clipPath fill="#0079C0" id="clip-path"><rect fill="#0079C0" class="cls-1" x="-66.69" y="-74.28" width="216" height="216"/></clipPath></defs><title>share</title><g class="cls-2"><path fill="#0079C0" d="M56.9,9.91A9.91,9.91,0,1,1,47,0,9.9,9.9,0,0,1,56.9,9.91"/><path fill="#0079C0" d="M56.9,57.52A9.91,9.91,0,1,1,47,47.61a9.9,9.9,0,0,1,9.91,9.91"/><path fill="#0079C0" d="M19.82,33.72a9.91,9.91,0,1,1-9.91-9.91,9.91,9.91,0,0,1,9.91,9.91"/><rect fill="#0079C0" x="6.78" y="19.3" width="43.65" height="4.78" transform="translate(-7.24 19.84) rotate(-34.21)"/><rect x="26.22" y="23.73" fill="#0079C0" width="4.78" height="43.65" transform="matrix(0.56, -0.83, 0.83, 0.56, -25.15, 43.6)"/></g></svg>