<?xml version="1.0" encoding="UTF-8"?>
<svg width="36px" height="29px" viewBox="0 0 36 29" version="1.1" xmlns="http://www.w3.org/2000/svg" xmlns:xlink="http://www.w3.org/1999/xlink">
    <!-- Generator: Sketch 59.1 (86144) - https://sketch.com -->
    <title>Fill 4</title>
    <desc>Created with Sketch.</desc>
    <g id="ALL-FINAL-DESIGNS" stroke="none" stroke-width="1" fill="none" fill-rule="evenodd">
        <g id="Article-Detail-Page" transform="translate(-990.000000, -6255.000000)" fill="#FFFFFF">
            <g id="Group-19" transform="translate(0.000000, 5904.000000)">
                <g id="Group-17" transform="translate(309.000000, 104.000000)">
                    <g id="Group-7" transform="translate(629.000000, 211.000000)">
                        <path d="M63.321712,65 C76.907248,65 84.336496,53.843925 84.336496,44.1702645 C84.336496,43.8532568 84.330016,43.5376763 84.315328,43.2238087 C85.757344,42.1905718 87.011008,40.9012738 88,39.4332753 C86.676496,40.0159072 85.252336,40.4087057 83.758336,40.5856933 C85.283296,39.6796307 86.454016,38.2454596 87.006112,36.5361013 C85.578784,37.3746518 83.998672,37.9845456 82.31632,38.3129719 C80.968624,36.8900767 79.049104,36 76.925104,36 C72.845872,36 69.538048,39.2786965 69.538048,43.3204382 C69.538048,43.8950772 69.602992,44.4535875 69.729568,44.9896888 C63.59128,44.6838142 58.14808,41.7705116 54.5056,37.3408243 C53.870704,38.4224473 53.505376,39.6796307 53.505376,41.0203122 C53.505376,43.5603707 54.809296,45.8025475 56.792032,47.1142545 C55.580704,47.0772869 54.442384,46.7472906 53.446912,46.1983433 C53.445184,46.228888 53.445184,46.2595753 53.445184,46.29169 C53.445184,49.8377236 55.991536,52.7976996 59.370784,53.4689681 C58.750576,53.63625 58.09768,53.7264566 57.42376,53.7264566 C56.947984,53.7264566 56.485168,53.6797832 56.035312,53.5944295 C56.975632,56.503022 59.702128,58.6195946 62.935216,58.6792566 C60.406864,60.6428206 57.222448,61.8129374 53.761984,61.8129374 C53.165968,61.8129374 52.57816,61.7792527 52,61.7115977 C55.268944,63.78792 59.150032,65 63.321712,65" id="Fill-4"></path>
                    </g>
                </g>
            </g>
        </g>
    </g>
</svg>